<?xml version="1.0" encoding="utf-8"?>
<!-- Generator: Adobe Illustrator 21.0.0, SVG Export Plug-In . SVG Version: 6.00 Build 0)  -->
<svg version="1.1" id="Layer_1" xmlns="http://www.w3.org/2000/svg" xmlns:xlink="http://www.w3.org/1999/xlink" x="0px" y="0px"
	 viewBox="0 0 16 14" style="enable-background:new 0 0 16 14;" xml:space="preserve">
<style type="text/css">
	.st0{fill:none;}
	.st1{filter:url(#Adobe_OpacityMaskFilter);}
	.st2{fill:#FFFFFF;}
	.st3{mask:url(#mask-2);}
	.st4{fill:#44A45F;}
</style>
<g id="Page-1">
	<g id="Smartpolymer-Elemets" transform="translate(-868.000000, -1410.000000)">
		<g id="Icon_x2F_Check" transform="translate(864.000000, 1405.000000)">
			<rect id="_x32_4pt-Bounding-Box" y="0" class="st0" width="24" height="24"/>
			<g id="Check">
			</g>
			<defs>
				<filter id="Adobe_OpacityMaskFilter" filterUnits="userSpaceOnUse" x="0" y="0" width="24" height="24">
					<feColorMatrix  type="matrix" values="1 0 0 0 0  0 1 0 0 0  0 0 1 0 0  0 0 0 1 0"/>
				</filter>
			</defs>
			<mask maskUnits="userSpaceOnUse" x="0" y="0" width="24" height="24" id="mask-2">
				<g class="st1">
					<path id="path-1" class="st2" d="M19.4,5.4L19.4,5.4c-0.7-0.6-1.7-0.5-2.3,0.2c0,0,0,0,0,0L10,14.5L6.4,12l0,0
						c-0.8-0.5-1.7-0.2-2.2,0.6c-0.4,0.7-0.2,1.7,0.4,2.2l6,4.2l9-11.2l0,0C20.2,7,20.1,6,19.4,5.4C19.4,5.4,19.4,5.4,19.4,5.4
						L19.4,5.4z"/>
				</g>
			</mask>
			<g id="Color_x2F_Primary" class="st3">
				<rect id="Base" y="0" class="st4" width="24" height="24"/>
			</g>
		</g>
	</g>
</g>
</svg>
