<?xml version="1.0" encoding="utf-8"?>
<!-- Generator: Adobe Illustrator 21.0.0, SVG Export Plug-In . SVG Version: 6.00 Build 0)  -->
<svg version="1.1" id="Layer_1" xmlns="http://www.w3.org/2000/svg" xmlns:xlink="http://www.w3.org/1999/xlink" x="0px" y="0px"
	 viewBox="0 0 16 16" style="enable-background:new 0 0 16 16;" xml:space="preserve">
<style type="text/css">
	.st0{fill:none;}
	.st1{filter:url(#Adobe_OpacityMaskFilter);}
	.st2{fill:#FFFFFF;}
	.st3{mask:url(#mask-2);}
	.st4{fill:#E6173E;}
</style>
<g id="Page-1">
	<g id="Smartpolymer-Elemets" transform="translate(-868.000000, -1479.000000)">
		<g id="Icon_x2F_Close" transform="translate(864.000000, 1475.000000)">
			<rect id="_x32_4pt-Bounding-Box" y="0" class="st0" width="24" height="24"/>
			<g id="Close">
			</g>
			<defs>
				<filter id="Adobe_OpacityMaskFilter" filterUnits="userSpaceOnUse" x="0" y="0" width="24" height="24">
					<feColorMatrix  type="matrix" values="1 0 0 0 0  0 1 0 0 0  0 0 1 0 0  0 0 0 1 0"/>
				</filter>
			</defs>
			<mask maskUnits="userSpaceOnUse" x="0" y="0" width="24" height="24" id="mask-2">
				<g class="st1">
					<path id="path-1" class="st2" d="M14.9,11.9l4.6-4.6v0c0.7-0.8,0.6-2.1-0.2-2.8c-0.7-0.6-1.9-0.6-2.6,0l-4.6,4.6L7.5,4.5l0,0
						C6.7,3.8,5.4,3.9,4.7,4.7c-0.6,0.7-0.6,1.9,0,2.6l4.6,4.6l-4.6,4.6l0,0c-0.8,0.7-0.9,2-0.2,2.8c0.7,0.8,2,0.9,2.8,0.2
						c0.1-0.1,0.2-0.1,0.2-0.2l4.6-4.6l4.6,4.6h0c0.8,0.7,2.1,0.6,2.8-0.2c0.6-0.7,0.6-1.9,0-2.6L14.9,11.9z"/>
				</g>
			</mask>
			<g id="Color_x2F_Primary" class="st3">
				<rect id="Base" y="0" class="st4" width="24" height="24"/>
			</g>
		</g>
	</g>
</g>
</svg>
