<?xml version="1.0" encoding="UTF-8"?>
<svg width="28px" height="28px" viewBox="0 0 28 28" version="1.1" xmlns="http://www.w3.org/2000/svg" xmlns:xlink="http://www.w3.org/1999/xlink">
    <!-- Generator: Sketch 56.3 (81716) - https://sketch.com -->
    <title>Icon/Social/Instagram</title>
    <desc>Created with Sketch.</desc>
    <defs>
        <path d="M10.49276,2.83686667 C8.32225333,2.9348 6.44096,3.46549333 4.92186667,4.97817333 C3.39746667,6.4988 2.87341333,8.38733333 2.77524,10.5352667 C2.71421067,11.8759067 2.357324,22.0041333 3.392164,24.6603333 C4.09001733,26.4522533 5.46449733,27.8299467 7.27281733,28.53004 C8.11660933,28.8582533 9.079804,29.0805867 10.492764,29.14544 C22.3071907,29.6801067 26.6866307,29.3889467 28.5334307,24.6603333 C28.8611293,23.8186267 29.086672,22.8564933 29.149028,21.44704 C29.6890013,9.60232 29.061464,7.03490667 27.0024013,4.97824 C25.3692147,3.34909333 23.4481213,2.24006667 10.492668,2.83693333 M10.6014587,26.7632 C9.30790933,26.70496 8.606072,26.48924 8.13773867,26.3079333 C6.95961333,25.8500267 6.07469867,24.9686267 5.619632,23.7973867 C4.83156133,21.7791467 5.09292533,12.1935333 5.16324133,10.6424667 C5.23223067,9.12316 5.54002933,7.73488 6.61201467,6.66290667 C7.938732,5.33946667 9.65285467,4.69098667 21.3240147,5.21772 C22.8470813,5.28653333 24.2388147,5.59357333 25.3134547,6.66290667 C26.640172,7.98633333 27.298228,9.71341333 26.762228,21.33984 C26.703852,22.6301867 26.4875973,23.33028 26.3058373,23.7974533 C25.1051573,26.8744267 22.3429307,27.3018933 10.6014373,26.7632667 M21.452664,8.92606667 C21.452664,9.80218667 22.1651107,10.5141867 23.0447307,10.5141867 C23.924344,10.5141867 24.6381173,9.80218667 24.6381173,8.92606667 C24.6381173,8.04996 23.9243427,7.33794667 23.0447307,7.33794667 C22.165116,7.33794667 21.452664,8.04996 21.452664,8.92606667 M9.15001067,15.9905467 C9.15001067,19.7438 12.2001307,22.7863733 15.962704,22.7863733 C19.7252773,22.7863733 22.7753973,19.7438 22.7753973,15.9905467 C22.7753973,12.2372933 19.7252773,9.19605333 15.962704,9.19605333 C12.2001307,9.19605333 9.15001067,12.2372933 9.15001067,15.9905467 M11.5407573,15.9905467 C11.5407573,13.55544 13.520224,11.5795467 15.962704,11.5795467 C18.4051973,11.5795467 20.3846507,13.55544 20.3846507,15.9905467 C20.3846507,18.4269867 18.405184,20.4028667 15.962704,20.4028667 C13.520224,20.4028667 11.5407573,18.4269867 11.5407573,15.9905467" id="path-1"></path>
    </defs>
    <g id="Page-1" stroke="none" stroke-width="1" fill="none" fill-rule="evenodd">
        <g id="Smartpolymer--Desktop_LP" transform="translate(-1540.000000, -9724.000000)">
            <g id="Footer" transform="translate(0.000000, 9602.000000)">
                <g id="Logo-+-Copyright" transform="translate(430.000000, 120.000000)">
                    <g id="Social-Icons-+-Newsletter-Button" transform="translate(811.000000, 0.000000)">
                        <g id="Social-Icons" transform="translate(235.000000, 0.000000)">
                            <g id="Icon/Social/Instagram" transform="translate(62.000000, 0.000000)">
                                <rect id="24pt-Bounding-Box" x="0" y="0" width="32" height="32"></rect>
                                <mask id="mask-2" fill="white">
                                    <use xlink:href="#path-1"></use>
                                </mask>
                                <g id="Instagram"></g>
                                <g id="Color/White" mask="url(#mask-2)" fill="#FFFFFF" fill-rule="evenodd">
                                    <rect id="Base" x="0" y="0" width="32" height="32"></rect>
                                </g>
                            </g>
                        </g>
                    </g>
                </g>
            </g>
        </g>
    </g>
</svg>