<?xml version="1.0" encoding="utf-8"?>
<!-- Generator: Adobe Illustrator 21.0.0, SVG Export Plug-In . SVG Version: 6.00 Build 0)  -->
<svg version="1.1" id="Layer_1" xmlns="http://www.w3.org/2000/svg" xmlns:xlink="http://www.w3.org/1999/xlink" x="0px" y="0px"
	 viewBox="0 0 20 18" style="enable-background:new 0 0 20 18;" xml:space="preserve">
<style type="text/css">
	.st0{fill:none;}
	.st1{filter:url(#Adobe_OpacityMaskFilter);}
	.st2{fill:#FFFFFF;}
	.st3{mask:url(#mask-2);}
	.st4{fill:#E6173E;}
</style>
<g id="Page-1">
	<g id="Smartpolymer-Elemets" transform="translate(-1406.000000, -1508.000000)">
		<g id="Icon_x2F_Warning" transform="translate(1404.000000, 1505.000000)">
			<rect id="_x32_4pt-Bounding-Box" y="0" class="st0" width="24" height="24"/>
			<g id="Warning">
			</g>
			<defs>
				<filter id="Adobe_OpacityMaskFilter" filterUnits="userSpaceOnUse" x="0" y="0" width="24" height="24">
					<feColorMatrix  type="matrix" values="1 0 0 0 0  0 1 0 0 0  0 0 1 0 0  0 0 0 1 0"/>
				</filter>
			</defs>
			<mask maskUnits="userSpaceOnUse" x="0" y="0" width="24" height="24" id="mask-2">
				<g class="st1">
					<path id="path-1" class="st2" d="M21.6,16.5l-6.9-12l0,0c-0.8-1.4-2.7-1.9-4.2-1.1C10,3.7,9.6,4,9.3,4.5l-6.9,12l0,0
						c-0.8,1.4-0.3,3.3,1.1,4.1C4,20.9,4.5,21,5.1,21h13.9l0,0c1.7,0,3.1-1.4,3.1-3C22,17.5,21.9,16.9,21.6,16.5L21.6,16.5z
						 M11.2,7.9L11.2,7.9c0-0.5,0.4-0.8,0.8-0.8l0,0h0c0.5,0,0.8,0.4,0.8,0.8v5.7l0,0c0,0.5-0.4,0.8-0.8,0.8l0,0l0,0
						c-0.5,0-0.8-0.4-0.8-0.8l0,0V7.9z M12,18.5L12,18.5c-0.7,0-1.3-0.5-1.3-1.2c0-0.7,0.6-1.2,1.3-1.2c0.7,0,1.3,0.5,1.3,1.2l0,0
						C13.3,18,12.7,18.5,12,18.5L12,18.5z"/>
				</g>
			</mask>
			<g id="Color_x2F_Primary" class="st3">
				<rect id="Base" y="0" class="st4" width="24" height="24"/>
			</g>
		</g>
	</g>
</g>
</svg>
