<svg id="Слой_1" data-name="Слой 1" xmlns="http://www.w3.org/2000/svg" xmlns:xlink="http://www.w3.org/1999/xlink" viewBox="0 0 838.44 282.4"><defs><style>.cls-1{fill:none;stroke-linejoin:round;stroke-width:12.02px;stroke:url(#Безымянный_градиент_8);}.cls-2{fill:#231f20;}</style><linearGradient id="Безымянный_градиент_8" x1="93.62" y1="312.79" x2="415.78" y2="312.79" gradientUnits="userSpaceOnUse"><stop offset="0" stop-color="#a32222"/><stop offset="1" stop-color="#de4726"/></linearGradient></defs><title>logo_alfapolymer</title><path class="cls-1" d="M358.08,312.79,203,402.32V223.26Zm0,0L203,402.31l129.23,44.78ZM203,223.26l155.08,89.53-25.85-134.3Zm206.77,89.53-77.54-134.3H177.16L99.62,312.79l77.55,134.3H332.23Zm0,0H358.09M177.16,178.49,203,223.26,99.62,312.79,203,402.32l-25.84,44.77" transform="translate(-93.62 -172.48)"/><path class="cls-2" d="M446.26,277.52l36.22-100.66h19.17L538,277.52H518.25l-6.94-20.22H472.82L466,277.52Zm32.45-37.28h26.86l-13.43-39.69Z" transform="translate(-93.62 -172.48)"/><path class="cls-2" d="M565,279.18a20.66,20.66,0,0,1-10-1.81,16,16,0,0,1-5.91-4.91,16.21,16.21,0,0,1-2.77-6.41,25.44,25.44,0,0,1-.53-6.19v-83h18.57v79.38c0,2.62.52,4.4,1.58,5.36a6.38,6.38,0,0,0,4.45,1.43,15.27,15.27,0,0,0,6-1.36l3.32,14.19c-.4.4-2.21,1.06-5.43,2A32.26,32.26,0,0,1,565,279.18Z" transform="translate(-93.62 -172.48)"/><path class="cls-2" d="M593.4,277.52V219.87h-9.66V204.78h9.66v-3.93q0-10.56,4.34-16.75t9.88-7.69a36.1,36.1,0,0,1,9.63-1.51,41.59,41.59,0,0,1,11.24,1.28,36.42,36.42,0,0,1,5.21,1.73l-2.12,15.55a28,28,0,0,0-3.54-1.28,23.87,23.87,0,0,0-7-.83,9.54,9.54,0,0,0-6.57,2.34q-2.64,2.34-2.64,7.62v3.47h15.7v15.09H612v57.65Z" transform="translate(-93.62 -172.48)"/><path class="cls-2" d="M655.28,279.18a25.92,25.92,0,0,1-9-1.58,23.79,23.79,0,0,1-7.62-4.53,22.22,22.22,0,0,1-7.4-17,17.36,17.36,0,0,1,2.34-10.19,25.54,25.54,0,0,1,6.64-7.24,32.23,32.23,0,0,1,8.6-4.53,41.37,41.37,0,0,1,8.38-2c.7-.09,2.31-.3,4.83-.6l10.26-1.21v-1.05c0-4-1-6.89-3.09-8.61s-4.91-2.56-8.53-2.56a24.2,24.2,0,0,0-10.41,2.34,32.46,32.46,0,0,0-7.55,4.6l-6.19-13.13q3.18-3.17,11.78-6a63.77,63.77,0,0,1,8.22-2.26,31.21,31.21,0,0,1,7.32-.6A29.65,29.65,0,0,1,676,205a23.36,23.36,0,0,1,8.6,6,25.07,25.07,0,0,1,5.06,9,32,32,0,0,1,1.51,10.72v46.78H674l-.75-5.5a20.76,20.76,0,0,1-7.7,5.26A27.15,27.15,0,0,1,655.28,279.18Zm4.37-15.7a17.17,17.17,0,0,0,7-1.5,20.68,20.68,0,0,0,5.81-3.78V243.41q-4.38.45-7.47.83c-2.06.26-3.65.48-4.75.68q-6,1.22-8.38,4.15a10.09,10.09,0,0,0-2.34,6.42,7.18,7.18,0,0,0,2.64,5.81C653.94,262.76,656.43,263.48,659.65,263.48Z" transform="translate(-93.62 -172.48)"/><path class="cls-2" d="M446.71,392.22V291.56H476.9a85.25,85.25,0,0,1,13.43,1,40.75,40.75,0,0,1,11.92,3.85A23,23,0,0,1,513,307.18a34.72,34.72,0,0,1,3.47,15.31,31,31,0,0,1-1.74,11.32,39.41,39.41,0,0,1-4.6,9.21,30.74,30.74,0,0,1-5.66,6.34,13.24,13.24,0,0,1-4.9,2.86,46.88,46.88,0,0,1-10.27,2.95,65.46,65.46,0,0,1-10.41.83H465.73v36.22Zm19-53.58h10.72a57.24,57.24,0,0,0,7.47-.45,18.25,18.25,0,0,0,5.81-1.66,12.5,12.5,0,0,0,5.88-5.43,16.08,16.08,0,0,0-.23-15.25,11.23,11.23,0,0,0-6.11-5.13,37.31,37.31,0,0,0-12.07-1.81H465.73Z" transform="translate(-93.62 -172.48)"/><path class="cls-2" d="M550.17,393.88a33.67,33.67,0,0,1-15.35-3.32,32,32,0,0,1-10.89-8.76,38.39,38.39,0,0,1-6.51-12.3,45.64,45.64,0,0,1-2.19-14,43.65,43.65,0,0,1,4.84-20.37q5-9.36,13.16-13.43a37.44,37.44,0,0,1,16.94-4.08q12.24,0,20.72,6.64a31.87,31.87,0,0,1,11.19,15.4q3,9.36,3,15.84a43.48,43.48,0,0,1-5,20.53,29.4,29.4,0,0,1-6.5,8.83,35.57,35.57,0,0,1-7.87,5.43,30.6,30.6,0,0,1-8.16,2.79A41.48,41.48,0,0,1,550.17,393.88Zm0-16.15a11.38,11.38,0,0,0,8.11-2.34,19.41,19.41,0,0,0,5.18-6.26,27.87,27.87,0,0,0,2.63-7.47,20,20,0,0,0,.45-6.12,27.12,27.12,0,0,0-1.8-10.48,22.18,22.18,0,0,0-4.36-6.95,14.53,14.53,0,0,0-5.41-3.69,11.61,11.61,0,0,0-4.8-.91A13.75,13.75,0,0,0,539.65,338a18.3,18.3,0,0,0-3.23,4.68,28.21,28.21,0,0,0-1.73,4.75,25.08,25.08,0,0,0-.75,4.45c-.1,1.41-.15,2.62-.15,3.62a34.07,34.07,0,0,0,1.05,8.68,22.92,22.92,0,0,0,3.09,7A14.84,14.84,0,0,0,543,376,14.25,14.25,0,0,0,550.17,377.73Z" transform="translate(-93.62 -172.48)"/><path class="cls-2" d="M612.42,393.88a20.78,20.78,0,0,1-10-1.81,16.05,16.05,0,0,1-5.91-4.91,16.27,16.27,0,0,1-2.77-6.41,25.48,25.48,0,0,1-.53-6.19v-83h18.57v79.38c0,2.62.52,4.4,1.58,5.36a6.43,6.43,0,0,0,4.45,1.43,15.27,15.27,0,0,0,6-1.36l3.32,14.19q-.6.6-5.43,2A32.61,32.61,0,0,1,612.42,393.88Z" transform="translate(-93.62 -172.48)"/><path class="cls-2" d="M624.65,421,623,404.29a50,50,0,0,0,14.56-2,19.44,19.44,0,0,0,9.88-6.34,9.39,9.39,0,0,0,1.06-1.66,15.46,15.46,0,0,1,1.06-1.81l-29.88-73h20.07L660,375.31q2.56-6.78,4.83-13.13t3.92-12.67q3-11,5-18.56t2.87-11.47H695q-5.58,22.17-11.84,40.14a273.75,273.75,0,0,1-12.61,30.79,130.27,130.27,0,0,1-10.86,17.8q-4.83,5.9-14,9.29A62.76,62.76,0,0,1,624.65,421Z" transform="translate(-93.62 -172.48)"/><path class="cls-2" d="M698.29,392.22V319.48h17.06l.75,5.43a29.5,29.5,0,0,1,8.24-5.13,24.81,24.81,0,0,1,9.9-2.12,33.82,33.82,0,0,1,10.2,1.59,25.4,25.4,0,0,1,9.45,5.51,56.45,56.45,0,0,1,11-5.06,39.26,39.26,0,0,1,12.78-2q12.39-.14,19,5.44,6.81,5.73,8.17,12.83a60.41,60.41,0,0,1,1.51,12.67v43.62H787.79V349.51q0-7.25-2.74-11.7t-10.16-4.45a18.58,18.58,0,0,0-7.82,2,32.94,32.94,0,0,0-6.6,3.93,57.23,57.23,0,0,1,.9,9.05v43.92H742.81V349.51c0-5.44-1-9.48-3-12.15a10.06,10.06,0,0,0-8.49-4,15.44,15.44,0,0,0-8,2.26,33,33,0,0,0-6.38,4.83v51.77Z" transform="translate(-93.62 -172.48)"/><path class="cls-2" d="M849.51,393.88A40.3,40.3,0,0,1,836,391.61a30.2,30.2,0,0,1-11.24-7,34.5,34.5,0,0,1-7.7-11.85,45,45,0,0,1-2.87-16.9,46.32,46.32,0,0,1,2.65-16.3,34.23,34.23,0,0,1,7.24-11.92,31.54,31.54,0,0,1,10.71-7.4,33.43,33.43,0,0,1,13.06-2.57q12.23-.14,19.92,6.8a30.52,30.52,0,0,1,10.11,16,61.1,61.1,0,0,1,2.27,16.75v3.32H833.06q.6,9.21,5.73,13.29t13.29,4.07a32.76,32.76,0,0,0,12.67-2.26q5.43-2.26,7.4-4.23l5,15.24a25,25,0,0,1-6.34,3.47c-1.21.61-4.18,1.36-8.91,2.27q-3.46.75-6.64,1.13A49.19,49.19,0,0,1,849.51,393.88Zm-16-46.79h27.62a16.5,16.5,0,0,0-2-7.32,14.28,14.28,0,0,0-3.85-4.37,13.8,13.8,0,0,0-4.3-2.19,12.92,12.92,0,0,0-3.17-.6,14.24,14.24,0,0,0-9.21,3.62Q834.26,339.85,833.51,347.09Z" transform="translate(-93.62 -172.48)"/><path class="cls-2" d="M887.84,392.22V319.48h16.92l1.2,7.69a23.84,23.84,0,0,1,3.39-3.32,27.66,27.66,0,0,1,4.45-2.94,31,31,0,0,1,5-2.11,16.38,16.38,0,0,1,5.13-.83q5.88,0,8.15,1l-2.72,16.3a23.86,23.86,0,0,0-6.34-.6,16.83,16.83,0,0,0-9.5,2.79,40.55,40.55,0,0,0-7.1,5.81v48.9Z" transform="translate(-93.62 -172.48)"/><path class="cls-2" d="M462.22,454.88a10,10,0,0,1-5.31-1.35,7.68,7.68,0,0,1-3.15-3.4,10.09,10.09,0,0,1-.89-4.09V430.1h4.66v15.47a5.27,5.27,0,0,0,1.22,3.58,4.41,4.41,0,0,0,3.51,1.4,4.29,4.29,0,0,0,3.47-1.4,5.35,5.35,0,0,0,1.19-3.58V430.1h4.65V446a9.13,9.13,0,0,1-.72,3.71,8.29,8.29,0,0,1-2,2.78,8.68,8.68,0,0,1-3,1.75A10.89,10.89,0,0,1,462.22,454.88Z" transform="translate(-93.62 -172.48)"/><path class="cls-2" d="M509.53,454.37V430.1h4.65v9.79h2.44a2.09,2.09,0,0,0,1.2-.35,3.72,3.72,0,0,0,1.06-1.61l3.46-7.83h4.91l-3.82,8.48a8.17,8.17,0,0,1-1,1.67,4.13,4.13,0,0,1-1.17,1,4.27,4.27,0,0,1,1.36,1.1,5.71,5.71,0,0,1,.93,1.71l4.11,10.33h-5l-3-7.57a9.11,9.11,0,0,0-1.12-2.14,1.91,1.91,0,0,0-1.61-.7h-2.73v10.41Z" transform="translate(-93.62 -172.48)"/><path class="cls-2" d="M563.7,454.37V430.1h8.48a9.27,9.27,0,0,1,4.76,1.13,5.86,5.86,0,0,1,2.78,2.8,7.49,7.49,0,0,1,.61,3.27,7.25,7.25,0,0,1-.83,3.43,7.06,7.06,0,0,1-2.59,2.62,4.18,4.18,0,0,1,.87.52,3.5,3.5,0,0,1,.74.82,10.13,10.13,0,0,1,.63,1.24c.2.49.42,1.09.64,1.82l1.82,6.62h-4.84L575,448.3c-.17-.49-.32-.89-.46-1.21s-.25-.56-.35-.76a1.58,1.58,0,0,0-.88-.8,3.89,3.89,0,0,0-1.44-.26h-3.53v9.1Zm4.59-13.28h3.27q4.16,0,4.15-3.31a3.28,3.28,0,0,0-1-2.6,4.81,4.81,0,0,0-3.17-.86h-3.27Z" transform="translate(-93.62 -172.48)"/><path class="cls-2" d="M615.19,454.37l8.74-24.27h4.62l8.77,24.27h-4.77l-1.67-4.87H621.6L620,454.37Zm7.83-9h6.47l-3.24-9.57Z" transform="translate(-93.62 -172.48)"/><path class="cls-2" d="M672.72,454.37V430.1h4.66v24.27Z" transform="translate(-93.62 -172.48)"/><path class="cls-2" d="M715.48,454.37V430.1h4.76l9.35,15.14V430.1h4.59v24.27h-4.07l-10-16.05v16.05Z" transform="translate(-93.62 -172.48)"/><path class="cls-2" d="M772.24,454.37V430.1h15.83v4.4H776.9V440h9.24v4.41H776.9V450h12v4.4Z" transform="translate(-93.62 -172.48)"/></svg>