<?xml version="1.0" encoding="utf-8"?>
<!-- Generator: Adobe Illustrator 21.0.0, SVG Export Plug-In . SVG Version: 6.00 Build 0)  -->
<svg version="1.1" id="Layer_1" xmlns="http://www.w3.org/2000/svg" xmlns:xlink="http://www.w3.org/1999/xlink" x="0px" y="0px"
	 viewBox="0 0 63 84" style="enable-background:new 0 0 63 84;" xml:space="preserve">
<style type="text/css">
	.st0{fill:none;}
	.st1{filter:url(#Adobe_OpacityMaskFilter);}
	.st2{fill:#FFFFFF;}
	.st3{mask:url(#mask-2);}
	.st4{fill:#FF6429;}
</style>
<g id="Page-1">
	<g id="Smartpolymer--Desktop_LP" transform="translate(-867.000000, -9318.000000)">
		<g id="Body" transform="translate(0.000000, 7967.000000)">
			<g id="Map" transform="translate(0.000000, 1035.000000)">
				<g id="Icon_x2F_Map-Marker" transform="translate(856.000000, 314.000000)">
					<rect id="_x32_4pt-Bounding-Box" y="0" class="st0" width="85" height="85"/>
					<g id="Map-Marker">
					</g>
					<defs>
						<filter id="Adobe_OpacityMaskFilter" filterUnits="userSpaceOnUse" x="0" y="0" width="85" height="85">
							<feColorMatrix  type="matrix" values="1 0 0 0 0  0 1 0 0 0  0 0 1 0 0  0 0 0 1 0"/>
						</filter>
					</defs>
					<mask maskUnits="userSpaceOnUse" x="0" y="0" width="85" height="85" id="mask-2">
						<g class="st1">
							<path id="path-1" class="st2" d="M42.5,7.1C26,7.1,17.7,20.4,17.7,33.6s24.8,44.3,24.8,44.3s24.8-31,24.8-44.3
								S59,7.1,42.5,7.1z M42.5,42.5L42.5,42.5c-4.6,0-8.3-4-8.3-8.9s3.7-8.9,8.3-8.9s8.3,4,8.3,8.9l0,0
								C50.8,38.5,47.1,42.5,42.5,42.5L42.5,42.5z"/>
						</g>
					</mask>
					<g id="Color_x2F_Warning" class="st3">
						<rect id="Base" y="0" class="st4" width="85" height="85"/>
					</g>
				</g>
			</g>
		</g>
	</g>
</g>
</svg>
